<?xml version="1.0" encoding="utf-8"?>
<!-- Generator: Adobe Illustrator 19.2.1, SVG Export Plug-In . SVG Version: 6.00 Build 0)  -->
<svg version="1.1" id="layer" xmlns="http://www.w3.org/2000/svg" xmlns:xlink="http://www.w3.org/1999/xlink" x="0px" y="0px"
	 viewBox="0 0 652 652" style="enable-background:new 0 0 652 652;" xml:space="preserve">
<style type="text/css">
	.st0{fill:#FF0030;}
</style>
<path class="st0" d="M197.3,366.3c-4.3-0.3-3.2-10.5-12.4-9.3c-6.5,0.8-7.2,8.5-7.8,14.6c-0.7,6.7-1.4,12.5-3.4,11.6
	c-2-0.9-1.2-3.9-2-13.3c-0.8-10.8-3.5-16.7-9.9-17.8c-7.8-1.2-10.9,10.6-12.3,15.2c-1.4,4.6-3.9,6.7-5.2,6.7c-1.4,0-3.5-0.6-4.1-6.1
	c-0.6-5.4,3.9-14.8,10-21.3c18.6-19.6,45.4-33.5,45.4-63.8c0-28.7-20.5-43.9-39.6-43.9c-9.7,0-18.9,4.1-25.4,11.3
	c-4.5,4.5-6.5,9.5-8.2,9.5s-3.6-5-8.1-9.5c-6.5-7.2-15.7-11.3-25.4-11.3c-19,0-39.6,15.1-39.6,43.8c0,30.3,26.7,44.2,45.4,63.8
	c6.2,6.6,10.6,15.9,10,21.3c-0.5,5.5-2.8,5.6-3.9,5.6c-1,0-3.5-1-5.3-7.8c-1.8-6.7-3.6-11.6-10.4-12.1c-7.6-0.5-9.5,9.9-10.2,18.2
	c-0.5,7.1-0.7,20.4-3.4,19.4c-1.6-0.7-2.3-15.9-3.6-27.7c-1-9.1-2.2-28.5-7.4-31.9c-6.4-4.2-12,0.5-13.8,8
	c-1.3,5.5-1.5,10.2-3.2,17.6c-1.2,5.5-2.6,9-8,9H20.4v8.1H24c19.6,0.8,25.1-1.2,27.5-10c1.5-6.4,2.6-12.9,3.4-19.4
	c0.7-3.9,3.1-5.8,4.1,4.9c0.5,5.3,1,12.1,1.8,19c2.4,20.2,3,34.2,11.9,34.9c9.8,0.9,9.9-17.2,10.6-24.3c0.4-4.5,1-17.5,3.3-16.1
	c3.2,1.9,2,18.2,17.1,18.9c8.6,0.4,11.8-6.1,12.4-13.4c0.6-7.3-6-17-14.9-25.8c-21.5-21.1-36.4-32-36.4-55.3
	c0-23.3,16.6-35.6,31-35.6c3.2,0,13-0.5,24.7,18.5c0.7,1.2,2.3,1.7,3.6,0.9c0.4-0.2,0.7-0.6,0.9-0.9c11.6-19.1,21.5-18.5,24.7-18.5
	c14.5,0,31,11.6,31,35.6c0,24-15.1,33.7-36.4,54.8c-8.9,8.8-15,19.4-14.8,26.4c0.2,7,3.9,13.8,12.4,13.4
	c14.6-0.7,13.8-12.6,16.8-19.1c1.6-3.5,3.9-3.5,4.2,1.7s0.5,7,1.1,12.6c0.7,7.1,3.3,15.2,9.7,14.5c5.5-0.5,8.7-3.9,9.8-14.2
	c0.3-3,0.5-4.3,0.9-8.7c0.2-2.5,1-4.3,2.1-3.9c1.1,0.5,2.1,2.9,2.8,4.6c1.6,3.3,5.1,5.2,8.8,4.9h22.7v-8.1c-8.9,0-20.6,0-23.3-0.3
	 M275.5,259.9c9.4,0,14.8,5.4,14.8,11.6c0.4,4.6-2.8,8.8-7.4,9.5c-1.5,0.4-1.7,2.1,0,2.4c5.6,0.7,9.7,5.6,9.2,11.2
	c0,7.3-6.7,12.2-14.8,12.2h-21.6v-47H275.5z M264.4,299.4h11.6c4.4,0,6.9-1.9,6.9-5.7c0-4.6-4.3-5.3-7.5-6.8
	c-2.3-0.9-3.5-3.4-2.7-5.8c0.5-1.2,1.4-2.2,2.7-2.7c2.7-1.1,5.9-1.9,5.9-6c0-3.2-2.3-5.3-6.4-5.3h-10.6V299.4z M305,274.8v3.6
	c2.4-2.9,6.1-4.5,9.9-4.2v8c-6.1,0-9.1,2.8-9.1,7.8v17h-8.8v-32.1H305z M318.7,266.1c0-2.9,2.3-5.2,5.2-5.2c2.9,0,5.2,2.3,5.2,5.2
	c0,2.9-2.3,5.2-5.2,5.2C321.1,271.3,318.7,269,318.7,266.1z M328.1,274.8v31.9h-8.8v-31.9H328.1z M357.5,301.2
	c-1.7,3.8-5.5,6.3-9.7,6.1c-4.9,0.5-9.2-3.1-9.7-8c-0.1-0.6-0.1-1.1,0-1.7V282h-5.3v-7.2h5.3v-10.7h8.6v10.7h7.3v7.2h-7.2v15.7
	c0,1.7,0.7,2.5,1.9,2.5c1.1,0,1.9-0.7,2.9-2.5l0.9-1.6l5.9,3.3L357.5,301.2z M361,266.1c0-2.9,2.3-5.2,5.2-5.2
	c2.9,0,5.2,2.3,5.2,5.2c0,2.9-2.3,5.2-5.2,5.2C363.3,271.3,361,269,361,266.1z M370.4,274.8v31.9h-8.6v-31.9H370.4z M384.9,297.6
	c0,1.7,1.9,2.5,4.8,2.5c2.9,0,4.5-0.9,4.5-2.7c0-5.9-16.6-2-16.6-13.4c0-5.8,4.9-9.7,13.1-9.7c4.3-0.2,8.6,1.4,11.6,4.5l-4.3,5.3
	c-1.9-1.9-4.5-2.9-7.2-2.9c-3.3,0-4.5,1.1-4.5,2.6c0,5,16.6,2.2,16.6,13.3c0,6.2-5.2,10.2-13.5,10.2c-7.8,0-13.2-3.3-13.2-8.8
	c0-1.7,0.5-3.4,1.5-4.8l7.5,2.5C385.1,296.6,385,297.1,384.9,297.6z M438.3,286.1c0,2.6-0.7,6.1-0.7,10.4c0,3.4,0.4,6.9,1.3,10.2
	h-8.6c-0.9-3.2-1.3-6.6-1.3-9.9c0-3.9,0.6-6.8,0.6-9.1c0.5-2.9-1.6-5.7-4.5-6.2c-0.5-0.1-1.1-0.1-1.6,0c-3.8-0.4-7.1,2.4-7.5,6.2
	c0,0.5,0,1,0,1.6v17.6h-8.6v-48h8.5v19.4c2.5-2.8,6.1-4.3,9.8-4.2c6.4-0.5,12,4.2,12.6,10.6C438.3,285.2,438.3,285.7,438.3,286.1z
	 M500.1,259.9v46.8h-8.8v-20.8h-5.7c-10.2,0-15.3,5-15.3,13.4v7.4h-8.9v-46.8h8.9v24.3c4.6-4,10.5-6.1,16.6-5.8h4.4v-18.5H500.1z
	 M535.1,302.5c-3.7,3.5-8.7,5.2-13.8,4.8c-8.5,0.7-16-5.6-16.7-14.2c-0.1-0.8-0.1-1.5,0-2.3c-0.3-9,6.8-16.5,15.8-16.7
	c0.5,0,0.9,0,1.4,0c8.6,0,12.6,5.1,12.6,10.3c0,8.7-10.7,11.6-20.6,11.6c1.1,2.6,3.5,3.9,7.8,3.9c3.4,0.1,6.8-1.1,9.4-3.2
	L535.1,302.5z M512.7,290.1c8,0,13.1-1.3,13.1-5.2c0-2.1-1.4-3.6-4.7-3.6c-4.6-0.1-8.4,3.6-8.5,8.3
	C512.7,289.7,512.7,289.9,512.7,290.1z M561.7,306.7c-0.5-1.5-0.9-2.9-1.2-4.3c-2.6,3.4-6.7,5.2-10.9,5c-7.1,0-11.3-4.1-11.3-9.9
	s3.9-9.3,14.2-9.6c3.1,0,6.2-0.2,6.2-2.7s-1.8-3.6-5.7-3.6c-2.8-0.2-5.5,1-7.2,3.3l-6.7-4.1c3.1-4.5,8.3-7,13.8-6.6
	c8.6,0,14.4,4.2,14.4,13.4c-0.3,6.5,0.5,12.9,2.3,19.2H561.7z M559.5,296.8c0-1.2,0-2.7-0.3-4.1c-1.9,0.6-3.8,0.9-5.8,0.7
	c-2.6,0-6.5,0.4-6.5,4.2c0,2.1,1.7,3.9,3.9,3.9c0.1,0,0.2,0,0.4,0C554.5,301.3,557.6,299.6,559.5,296.8z M582.2,274.8v3.6
	c2.4-2.9,6-4.5,9.7-4.2v8c-6.1,0-9.1,2.8-9.1,7.8v17h-8.6v-32.1H582.2z M619.5,301.2c-1.7,3.8-5.5,6.3-9.7,6.1
	c-4.9,0.4-9.2-3.3-9.6-8.2c0-0.5,0-1,0-1.5V282H595v-7.2h5.3v-10.7h8.6v10.7h7.2v7.2h-7.2v15.7c0,1.7,0.7,2.5,1.9,2.5
	c1.1,0,1.9-0.7,2.9-2.5l0.9-1.6l5.9,3.3L619.5,301.2z M264.4,335v14.4c3.4-2.3,7.5-3.4,11.6-3.2h6.3v7.4h-7.8c-6.9,0-10,3.1-10,8.1
	v12.6h-9v-46.5H285v7.4L264.4,335z M285.9,358.6c-0.3-9.5,7.1-17.4,16.5-17.8c9.5-0.3,17.4,7.1,17.8,16.5s-7.1,17.4-16.5,17.8
	c-0.2,0-0.3,0-0.5,0c-8.9,0.6-16.6-6.1-17.3-15C285.9,359.6,285.9,359.1,285.9,358.6z M311.5,358.6c0-5.9-3.1-9.4-8.4-9.4
	c-4.5-0.2-8.4,3.3-8.6,7.9c0,0.6,0,1.2,0.1,1.8c-0.4,4.6,3,8.8,7.6,9.2c4.6,0.4,8.8-3,9.2-7.6c0.1-0.5,0.1-1.1,0-1.6L311.5,358.6z
	 M324.4,363.1c0-2.6,0.7-6.1,0.7-10.3c0-3.5-0.4-6.9-1.3-10.2h8.6c0.9,3.2,1.3,6.6,1.3,10c0,3.9-0.6,6.8-0.6,9
	c0,3.9,1.8,6.2,5.7,6.2c3.8,0.4,7.1-2.4,7.5-6.1c0-0.4,0-0.9,0-1.3v-17.7h8.6v31.8h-8.1v-3.5c-2.8,2.8-6.6,4.4-10.6,4.2
	c-6.3,0.3-11.6-4.5-11.9-10.7C324.3,363.9,324.3,363.5,324.4,363.1z M392.1,353.9c0,2.6-0.7,6.1-0.7,10.4c0,3.4,0.4,6.9,1.3,10.2
	h-8.6c-0.9-3.2-1.3-6.6-1.3-9.9c0-3.9,0.6-6.9,0.6-9.1c0.5-2.9-1.6-5.7-4.5-6.2c-0.5-0.1-1-0.1-1.5,0c-3.8-0.3-7.1,2.4-7.5,6.2
	c0,0.4,0,0.9,0,1.3v17.5h-8.5v-31.8h7.8v3.5c2.7-2.7,6.4-4.1,10.2-4.1c6.4-0.6,12.1,4.1,12.7,10.5
	C392.1,352.9,392.2,353.4,392.1,353.9z M423.5,374.3c-0.4-1.4-0.7-2.8-0.9-4.3c-2.5,3.4-6.6,5.3-10.8,5.1c-8.6,0-15.5-6.9-15.6-15.5
	c0-0.4,0-0.8,0-1.1c-0.2-9,6.8-16.4,15.8-16.6c0.1,0,0.3,0,0.4,0c3-0.1,5.9,1,8.1,2.9v-18.2h8.8v26.8c-0.1,7.1,0.7,14.1,2.3,21
	L423.5,374.3z M421,358.4c0-5.9-3.2-9.2-8.1-9.2s-8,3.3-8,9.2s3.1,9.2,8,9.2s8.2-3.1,8.2-9.1L421,358.4z M459.1,374.3
	c-0.5-1.5-0.9-2.9-1.2-4.3c-2.6,3.4-6.7,5.2-10.9,5c-7.1,0-11.3-4.1-11.3-9.9c0-5.9,3.9-9.3,14.2-9.6c3.1,0,6.2-0.2,6.2-2.7
	s-1.8-3.6-5.6-3.6c-2.8-0.2-5.5,1.1-7.2,3.3l-6.6-4.1c3.1-4.5,8.3-7,13.8-6.6c8.6,0,14.4,4.2,14.4,13.4c-0.3,6.5,0.5,12.9,2.2,19.2
	L459.1,374.3z M456.9,364.2c0-1.3-0.2-2.7-0.3-4.1c-1.9,0.6-3.8,0.9-5.8,0.7c-2.5,0-6.5,0.4-6.5,4.3c0,2.1,1.7,3.9,3.9,3.9
	c0.1,0,0.3,0,0.4,0c3.4-0.2,6.4-1.9,8.4-4.6L456.9,364.2z M494.5,369c-1.7,3.8-5.5,6.3-9.7,6.1c-4.9,0.4-9.2-3.3-9.5-8.2
	c0-0.5,0-1,0-1.5v-15.5H470v-7.3h5.3v-10.7h8.6v10.7h7.2v7.2H484v15.7c0,1.7,0.7,2.4,1.9,2.4c1.1,0,1.9-0.7,2.8-2.5l0.9-1.6l5.9,3.3
	L494.5,369z M498.1,333.9c0-2.9,2.3-5.2,5.2-5.2c2.9-0.2,5.4,1.9,5.6,4.7c0.2,2.9-1.9,5.4-4.7,5.6c-0.3,0-0.6,0-0.9,0
	C500.5,339,498.2,336.7,498.1,333.9z M507.5,342.5v31.8h-8.6v-31.8H507.5z M513.4,358.6c-0.3-9.4,7.1-17.4,16.5-17.7
	c9.4-0.3,17.4,7.1,17.7,16.5c0.3,9.4-7.1,17.4-16.5,17.7c-0.2,0-0.4,0-0.5,0c-8.9,0.5-16.6-6.3-17.1-15.2
	C513.4,359.5,513.4,359,513.4,358.6z M538.9,358.6c0-5.9-3.1-9.4-8.4-9.4c-4.5-0.2-8.4,3.3-8.6,7.9c0,0.6,0,1.2,0.1,1.8
	c-0.4,4.6,3,8.8,7.6,9.2c4.6,0.4,8.8-3,9.2-7.6c0.1-0.5,0.1-1.1,0-1.6V358.6z M584.2,353.9c0,2.6-0.7,6.1-0.7,10.4
	c0,3.4,0.4,6.9,1.3,10.2h-8.6c-0.9-3.2-1.3-6.6-1.3-9.9c0-3.9,0.6-6.9,0.6-9.1c0.5-2.9-1.6-5.7-4.5-6.2c-0.5-0.1-1-0.1-1.5,0
	c-3.8-0.3-7.1,2.4-7.5,6.2c0,0.4,0,0.9,0,1.3v17.5h-8.6v-31.8h8v3.5c2.7-2.7,6.4-4.1,10.2-4.1c6.4-0.5,12,4.3,12.5,10.7
	C584.3,353,584.3,353.5,584.2,353.9L584.2,353.9z"/>
</svg>
