<?xml version="1.0" encoding="utf-8"?>
<!-- Generator: Adobe Illustrator 19.0.0, SVG Export Plug-In . SVG Version: 6.00 Build 0)  -->
<svg version="1.1" id="layer" xmlns="http://www.w3.org/2000/svg" xmlns:xlink="http://www.w3.org/1999/xlink" x="0px" y="0px"
	 viewBox="-153 -46 652 652" style="enable-background:new -153 -46 652 652;" xml:space="preserve">
<style type="text/css">
	.st0{fill:#FFFFFF;}
	.st1{fill:#0095DB;}
</style>
<path d="M183.8,314.2c-1.6-3.4-3.9-6.4-6.8-8.8c-1.2-0.9-2.5-1.7-3.9-2.4c-3.6-1.9-7.5-3.2-11.6-4c-2.4-0.5-4.9-0.8-7.3-0.8
	c-1.4-7.1-3.2-14.1-5.4-21c-1.6-5.5-4.3-12.3-9.5-26c-2.7-7.1-5.8-14-9.3-20.7c-5.5-11.7-12.5-22.7-20.8-32.7
	c-6.3-7.2-13.2-13.7-20.7-19.6l-2.5-2c-2.7-1.9-5.5-3.7-8.3-5.3c-4-2.1-17.5-7.2-20.1-8.3c0.9-1.7,4.8-8.5,7.8-14
	c0.8-1.4,1.7-2.8,2.6-4.1c1.9-2.6,3.5-5.3,4.9-8.2c1.6-3.9,2.3-9.3,0.2-12.1c-1.3-1.6-3.2-2.6-5.3-2.6c-3.8,0.1-7.4,1.9-9.8,4.9
	c-5.2,5.5-9.8,11.6-13.7,18.1l-7.5,12c-1.8-0.4-11.8-2.8-23-4.4h-0.4c-8.8-1.3-27.3-4.1-34.6-1c-3.1,0.9-5.7,3.2-6.8,6.3
	c-0.5,1.8-0.1,3.7,1,5.1c2,2.8,6,3.2,12.6,2.9h1.5c7-0.4,14-0.3,20.9,0.3c7.4,0.9,14.8,2.2,22.1,3.9l-1.3,1.4
	c-15.9-2.9-32.2-2.2-47.8,2c-15.2,4.6-29.4,11.7-42.2,21.2l-1.7,1.2c-7.2,5-17.7,18.3-25.1,31.5c-2.3,4.1-4.2,9-5.1,10.9
	c-2.3,5.2-3.9,9.4-4.4,10.6c-3.5,10.9-5.6,22.1-6.3,33.5c-10.2-1.3-12.9,1.5-17.8,5.8l-1,0.9c-7.9,7-8.6,19.4-8.6,23.1
	c0.6,10.2,4.2,20,10.2,28.2c5.2,7.5,12.8,12.9,21.5,15.4c2.4,0.5,4.8,0.8,7.3,0.8c11.3,22.4,26.4,33.6,37.5,43.1
	c11.2,9.5,37.5,25.4,52.7,27.3c15.6,1.7,31.3,1.5,46.9-0.5c41.8-5.5,58-14.7,66.6-20.5c4.5-3.2,8.7-6.9,12.4-11
	c11.7-13,20.8-28.1,27.1-44.4c8.1,0.8,17.3,1.9,24.2-3.2c3.1-2.3,5.7-5.2,7.6-8.4c2.9-5.4,3.8-11.8,2.5-17.8
	C185.3,318.5,184.7,316.3,183.8,314.2L183.8,314.2z M155.4,310.8c0.8,0,1.7,0,2.5,0c3.8-0.1,7.5,1,10.5,3.2c1.4,1,2.4,2.3,3,3.9
	c0.3,1,0.5,2,0.6,3c0.1,1.3,0.1,2.6,0,3.9v0.6c-0.2,3.2-1.2,6.2-3,8.9c-1.3,2.1-3.4,4.3-9.6,5.2c-2.1,0.1-4.3,0.1-6.3-0.2
	c1.2-5.3,1.9-10.7,2.3-16.2C155.6,318.9,155.6,314.8,155.4,310.8L155.4,310.8z M-73.3,347.3c0.2-1.7-0.2-3.4-1.3-4.7
	c-2.3-1.4-5.1-1.9-7.8-1.4c-1.6-6-3-12.1-4-18.3c-1.3-7.5-2.1-15-2.5-22.5c1.2,0.3,2.3,0.8,3.4,1.4c0.9,0.5,1.3,0.9,2.5,1.7
	c1.1,0.8,2.2,1.5,3.4,2.1c0.9,0.5,1.9,0.7,2.9,0.6c0.7-0.1,1.4-0.4,1.9-0.9c0.3-0.3,0.5-0.6,0.7-1c0.7-3.1-0.1-6.3-2-8.7
	c-2.8-4.5-6.7-8.2-11.4-10.8c0.9-9.6,2.8-19.1,5.7-28.4c0,0,2.4-7.6,6.8-18c1.4-3.2,2.9-6,2.9-6c0.6-1.1,1.1-2.1,1.7-3.1
	c0.6-1.1,1.3-2.2,2.1-3.4c1.8-2.8,3.8-5.5,6-8.1c3-3.6,6.3-7,9.7-10.2l6.8-5.1c8.5-6.2,17.9-11.1,27.9-14.5c8.5-2.6,17.2-4.3,26.1-5
	c2.6-0.1,5.2-0.1,7.7,0c2.3,0.1,4.6,0.3,6.8,0.7l-0.7,1.4c-0.4,0.7-0.7,1.5-1,2.2l-0.5,1c-1.8,3.7-7.3,16.4-3.6,22.8
	c0,0.2,2.6,4.4,11.3,0.3c0,0,4.4-2,8.8-10.5c0,0,4.4-9.6,6.6-13.7c2.1-4,4.1-7.7,4.2-7.7l1.8-2.8c3.5,0.8,6.9,1.9,10.2,3.1
	c9.7,3.7,18.6,9.2,26.2,16.2c7.4,6.6,13.9,14.2,19.4,22.4c8.8,12.9,13.7,25.1,20.5,41.6c2.2,5.4,3.4,9.2,3.9,10.2
	c3.5,9.7,6.4,19.5,8.7,29.6l-5,2.1c-2.5,1.1-3.7,1.6-4.9,2.2c-2.1,1.2-4.2,2.6-6,4.3l-0.2,0.2c-1.5,1.9-1.5,4.5,0,6.4
	c0.6,0.9,1.6,1.5,2.6,1.9c1.7,0.6,3.2,0,6.2-1.1c1.3-0.5,2.6-1.1,3.9-1.7c0.5-0.2,1-0.4,1.5-0.5c1.3-0.4,2.4-0.7,3.3-0.9
	c0.8,7.5,0.2,15.1-1.6,22.4c-1.7-0.5-3.4-0.9-5.1-1.2c-1.9-0.4-3.8,0.3-5.1,1.7c-1.1,1.7-1.4,3.7-1,5.7c1.6,5.2,7.4,5.1,8.5,5.4
	l0.7,0.3c-3.5,9.5-8.5,18.5-14.8,26.6c-7.1,9.2-15.7,17-25.5,23.2c-4.2,2.4-8.6,4.4-13.1,6c-2.9,1-5.9,1.9-6.4,2.1
	c-0.6,0.2-3,0.8-6.2,1.6c-3.2,0.8-7,1.6-11,2.3c-6.3,1.2-11.7,1.9-15.4,2.3c-3.7,0.4-9.7,1.1-16.5,1.4c-6.7,0.2-13.3,0-20-0.6
	c-23.2-2.5-42.2-16.8-56.3-27.8c-5.9-4.4-11.3-9.4-16.2-15c-4-4.6-7.5-9.5-10.5-14.8C-74.2,352.2-73.3,349.8-73.3,347.3L-73.3,347.3
	z M-98.4,340c-2.4-0.3-4.6-1.1-6.5-2.5l-0.6-0.3c-0.8-0.4-1.6-0.9-2.3-1.4c-2.7-2.1-4.9-4.9-6.3-8c-2.5-4.7-3.7-10-3.3-15.4
	c0.2-3.3,1.4-6.5,3.4-9.2c0.8-1,1.7-1.8,2.7-2.6c1.9-1.4,4.1-2.1,6.5-2.1h0.5c0.3,7.2,0.9,14.3,2,21.4
	C-101.4,326.7-100.1,333.4-98.4,340L-98.4,340z M-98.4,340"/>
<path class="st0" d="M-86.3,322.9c-1.3-7.5-2.1-15-2.5-22.5c1.2,0.3,2.3,0.8,3.4,1.4c0.9,0.5,1.3,0.9,2.5,1.7
	c1.1,0.8,2.2,1.5,3.4,2.1c0.9,0.5,1.9,0.7,2.9,0.5c0.7-0.1,1.4-0.4,1.9-0.9c0.3-0.3,0.5-0.6,0.7-1c0.6-3-0.1-6.2-2-8.6
	c-2.8-4.5-6.7-8.2-11.4-10.8c0.9-9.6,2.8-19.1,5.7-28.4c0,0,2.4-7.6,6.8-18c1.4-3.2,2.9-6,2.9-6c0.6-1.1,1.1-2.1,1.7-3.1
	c0.6-1.1,1.3-2.2,2.1-3.4c1.8-2.8,3.8-5.5,6-8.1c3-3.6,6.3-7,9.7-10.2l6.8-5.1c8.5-6.2,17.9-11.1,27.9-14.5c8.5-2.6,17.2-4.3,26.1-5
	c2.6-0.1,5.2-0.1,7.7,0c2.3,0.1,4.6,0.3,6.8,0.7l-0.7,1.4c-0.4,0.7-0.7,1.5-1,2.2l-0.5,1c-1.8,3.7-7.3,16.4-3.6,22.8
	c0,0.2,2.6,4.4,11.3,0.3c0,0,4.4-2,8.8-10.5c0,0,4.4-9.6,6.6-13.7c2.1-4,4.1-7.7,4.2-7.7l1.8-2.8c3.5,0.8,6.9,1.9,10.2,3.1
	c9.7,3.7,18.6,9.2,26.2,16.2c7.4,6.6,13.9,14.2,19.4,22.4c8.8,12.9,13.7,25.1,20.5,41.6c2.2,5.4,3.4,9.2,3.9,10.2
	c3.5,9.7,6.4,19.5,8.7,29.6l-5,2.1c-2.5,1.1-3.7,1.6-4.9,2.2c-2.1,1.2-4.2,2.6-6,4.3l-0.2,0.2c-1.5,1.9-1.5,4.5,0,6.4
	c0.6,0.9,1.6,1.5,2.6,1.9c1.7,0.6,3.2,0,6.2-1.1c1.3-0.5,2.6-1.1,3.9-1.7c0.5-0.2,1-0.4,1.5-0.5c1.3-0.4,2.4-0.7,3.3-0.9
	c0.8,7.5,0.2,15.1-1.6,22.4c-1.7-0.5-3.4-0.9-5.1-1.2c-1.9-0.4-3.8,0.3-5.1,1.7c-1.1,1.7-1.4,3.7-1,5.7c1.6,5.2,7.4,5.1,8.5,5.4
	l0.7,0.3c-3.5,9.5-8.5,18.5-14.8,26.6c-7.1,9.2-15.7,17-25.5,23.2c-4.2,2.4-8.6,4.4-13.1,6c-2.9,1-5.9,1.9-6.4,2.1
	c-0.6,0.2-3,0.8-6.2,1.6c-3.2,0.8-7,1.6-11,2.3c-6.3,1.2-11.7,1.9-15.4,2.3c-3.7,0.4-9.7,1.1-16.5,1.4c-6.7,0.2-13.3,0-20-0.6
	c-23.2-2.5-42.2-16.8-56.3-27.8c-5.9-4.4-11.3-9.4-16.2-15c-4-4.6-7.5-9.5-10.5-14.8c1.5-2,2.3-4.4,2.4-6.8c0.2-1.7-0.2-3.4-1.3-4.7
	c-2.3-1.4-5.1-1.9-7.8-1.4C-83.9,335.2-85.3,329.1-86.3,322.9 M-98.4,340c-1.7-6.6-3-13.3-4-20c-1.1-7.1-1.7-14.3-2-21.4h-0.5
	c-2.3,0-4.6,0.7-6.5,2.1c-1,0.7-1.9,1.6-2.7,2.6c-2,2.7-3.2,5.9-3.4,9.2c-0.4,5.3,0.8,10.7,3.3,15.4c1.4,3.1,3.6,5.9,6.3,8
	c0.7,0.5,1.5,1,2.3,1.4l0.6,0.3C-103,338.9-100.8,339.7-98.4,340L-98.4,340z M-98.4,340 M155.4,310.8c0.2,4.1,0.2,8.1,0,12.2
	c-0.3,5.4-1.1,10.8-2.3,16.2c2.1,0.3,4.2,0.4,6.3,0.2c6.2-0.9,8.3-3.1,9.6-5.2c1.8-2.6,2.8-5.7,3-8.9v-0.6c0.1-1.3,0.1-2.6,0-3.9
	c0-1-0.2-2-0.6-3c-0.6-1.6-1.7-2.9-3-3.9c-3.1-2.2-6.8-3.3-10.5-3.2C157.1,310.7,156.3,310.7,155.4,310.8L155.4,310.8z M155.4,310.8
	"/>
<path class="st1" d="M57.5,355.1c-2.5,4.6-4.6,9.4-6.5,14.4c-3.9,11.8-2.1,18.2,7.5,24.7c6.3,4.6,15,4,20.5-1.5
	c2-2.6,5.5-4.3,5.5-15.6c-1.5-7.3-4.6-14.2-9.1-20.2c-2.4-4.3-5.1-8.4-8-12.4c-0.9-1.2-2.7-1.2-3.6,0
	C61.2,347.7,59,351.2,57.5,355.1L57.5,355.1z M57.5,355.1"/>
<path d="M-25.9,376.2c18.3,12,41,11.2,53.7,8.1c1.5-0.4,2.9-0.9,4.3-1.6c2.3-1.2,2.9-4.2,1.2-6.1c-2.3-3.4-7.6-2-11.1-1.9
	c-4.6,0.2-9.3,0-13.9-0.5c-9.1-1-17.9-4.2-25.5-9.3c-5.6-4.4-10.7-9.4-15-15.1c-1.6-2.2-3.6-4.1-5.9-5.7c-5.6-3.4-15.3,0-12.4,7.6
	C-46.3,362.3-35,370.2-25.9,376.2L-25.9,376.2z M-25.9,376.2 M49.1,300.6c0.2-0.8,0.5-1.6,0.8-2.3c0.4-0.9,0.8-1.8,1.4-2.7
	c2.1-3.2,5.2-5.6,8.8-6.8c8.2-1.9,16.6,2.8,19.1,10.8c2.2,7.1,0.5,16.4-5.9,20.7c-3.6,2.6-8,3.6-12.4,2.8c-1.7-0.3-3.3-0.8-4.9-1.5
	c-1.4-0.5-2.7-1.2-3.9-2.1c-0.7-0.8-1.4-1.6-2-2.5c-1.6-2.7-2.4-5.9-2.1-9c0-2.5,0.3-4.9,1-7.3 M81.6,282
	c-7.6-5.4-17.3-7.1-26.3-4.7c-2.8,0.6-5.5,1.8-7.9,3.4c-2.4,1.4-4.4,3.3-5.9,5.6c-6.3,11.1-8.7,26.2-2,37.5c3.3,5.2,8.5,9,14.4,10.8
	c1.8,0.4,3.6,0.7,5.4,0.9c4.1,0.8,8.3,0.8,12.3,0c3.5-0.9,6.8-2.6,9.5-5c2.8-2.3,5.2-5,7.1-8.1c1.6-3.8,2.5-7.8,2.9-11.9
	c0.3-2.6,0.4-5.1,0.3-7.7c0-2.3-0.2-4.6-0.6-6.8C89.5,290.3,86.2,285.4,81.6,282 M21.5,287.4c-0.9-6.9-3.8-13.3-8.4-18.6
	c-3.8-5.2-9.7-8.3-16.1-8.6c-6.6-0.9-13.3,0.2-19.3,3c-6.7,3.6-12,9.4-14.8,16.5c-1,2.4-2,4.7-2.8,7.1c-0.6,2.1-1,4.3-1.1,6.4
	c-0.3,3-0.1,5.9,0.6,8.9c1.6,6.5,5.2,12.4,10.2,16.8c2.6,2.4,5.7,4.3,9,5.5c2.6,1,5.4,1.4,8.2,1.2c2.8-0.3,5.5-0.7,8.2-1.3
	c9.7-3.3,17.8-10.3,22.5-19.5C20.6,299.5,22,293.4,21.5,287.4L21.5,287.4z M9.4,290.8c-0.3,2-0.8,4-1.6,5.9
	c-1.7,3.9-4.1,7.4-7.2,10.2c-5.2,5.7-13.5,7.6-20.7,4.7c-2.7-0.9-4.9-2.8-6.2-5.4c-0.8-1.6-1.5-3.2-2.1-4.9
	c-0.8-2.6-1.1-5.4-0.7-8.2c0.5-6.4,3.4-12.4,8.1-16.8c3.4-2.7,7.3-4.5,11.6-5.3h1.1c4.6-0.1,9.1,1.7,12.5,4.9
	C7.9,280.1,9.8,285.4,9.4,290.8L9.4,290.8z M9.4,290.8"/>
<path d="M245.4,185.5v3.7c0,11.9-7.1,19.6-18.9,19.6c-10.8,0.2-19.6-8.7-19.4-19.5c0-10.7,8.7-19.4,19.5-19.4
	c5.3-0.3,10.5,1.7,14.2,5.5l-6.4,7.3c-2.1-2.1-4.9-3.2-7.8-3.3c-5.3,0.2-9.4,4.6-9.2,9.8c-0.3,5.3,3.9,9.8,9.2,9.9
	c3.6,0.5,7.1-1.7,8.2-5.2h-8.6v-8.6H245.4z M245.4,185.5 M264.4,170.8c9.4,0,15.7,4.9,15.7,12.3c0.1,4.6-2.6,8.8-6.8,10.7l7.8,14.2
	H270l-6.4-12.4h-3.1v12.4H251v-37.1H264.4z M260.4,187.1h4.7c2.9,0,4.8-1.6,4.8-4.1c0-2.4-1.9-3.9-4.8-3.9h-4.7V187.1z M260.4,187.1
	 M310.8,170.8v9h-15.2v4.9h12.8v9h-12.8v5.3h15.1v8.9H286v-37.1H310.8z M310.8,170.8 M326.9,200.9l-2.6,7h-10l14.5-37.1H340
	l14.4,37.1h-10.5l-2.6-7H326.9z M330,192.5h8.4l-4.2-11.5L330,192.5z M330,192.5 M371.8,207.9h-9.5v-28.1H352v-9h29.9v9h-10.2
	L371.8,207.9z M371.8,207.9 M246,241.9c0,17.3-21,26-33.2,13.7c-12.2-12.3-3.5-33.2,13.8-33.2C237.3,222.5,246,231.1,246,241.9
	L246,241.9z M235.7,241.9c-0.5-8.1-10.4-11.6-15.9-5.7c-5.5,5.9-1.3,15.5,6.8,15.5C231.8,251.5,235.9,247.1,235.7,241.9L235.7,241.9
	z M235.7,241.9 M264.7,223.3c9.4,0,15.7,4.9,15.7,12.3c0.1,4.6-2.6,8.8-6.8,10.6l7.8,14.2h-11.1l-6.3-12.4h-3.1v12.4h-9.6v-37.1
	H264.7z M260.7,239.6h4.7c2.5,0.3,4.7-1.6,4.8-4.1c0-2.3-1.9-3.9-4.8-3.9h-4.7V239.6z M260.7,239.6 M305.6,259.8l-8.3-18.3
	l-2.8,18.8H285l5.5-37.1h8.8l9.1,21.2l9.1-21.2h8.8l5.5,37.1h-9.4l-2.9-18.8l-8.3,18.3H305.6z M305.6,259.8 M373.6,241.9
	c0,17.3-21,26-33.2,13.8c-12.2-12.3-3.6-33.2,13.8-33.2C364.9,222.4,373.6,231.1,373.6,241.9L373.6,241.9z M363.3,241.9
	c-0.5-8-10.4-11.6-15.9-5.7c-5.5,5.9-1.4,15.5,6.7,15.5C359.4,251.5,363.5,247.1,363.3,241.9L363.3,241.9z M363.3,241.9
	 M387.8,260.4h-9.6v-37.1h10.2l13.7,21.5v-21.5h9.6v37.1h-10.2l-13.7-21.1V260.4z M387.8,260.4 M432.1,223.3c12.1,0,21,7.9,21,18.6
	c0,10.8-8.9,18.5-21,18.5h-13.7v-37.1H432.1z M428.5,251.5h3.4c6.5,0,10.9-3.8,10.9-9.6c0-5.8-4.3-9.6-10.9-9.6h-3.4L428.5,251.5z
	 M428.5,251.5 M226.6,284.1c-2.4,0-3.4,0.9-3.4,2.3c0,4.8,18.2,2.6,18.2,15.7c0,6.8-6.1,12.1-14.9,12.1c-8.8,0-12.8-3.4-15.1-6.8
	l6.8-6.4c1.9,2.8,5.1,4.4,8.5,4.4c2.9,0,4.4-0.9,4.4-2.7c0-5-18.2-2.7-18.2-15.8c0-6.8,6-11.5,14.2-11.5c5.6-0.2,10.9,2.3,14.3,6.8
	l-6.5,6.5C233,285.8,229.9,284.2,226.6,284.1L226.6,284.1z M226.6,284.1 M263.6,313.3H254V285h-10.2v-9h30v9h-10.2L263.6,313.3z
	 M263.6,313.3 M292.2,276c9.5,0,15.8,4.9,15.8,12.3c0.1,4.6-2.6,8.9-6.8,10.7l7.9,14.2h-11.3l-6.4-12.4h-3.1v12.4h-9.6V276H292.2z
	 M288.2,292.4h4.7c2.9,0,4.9-1.7,4.9-4.1c0-2.5-2-3.9-4.9-3.9h-4.8L288.2,292.4z M288.2,292.4 M338.2,276v9h-15.3v4.9h12.9v9.2
	h-12.9v5.4h15.2v9h-24.8V276H338.2z M338.2,276 M369.1,276v9h-15.2v4.9h12.9v9.2h-12.9v5.4h15.2v9h-24.8V276H369.1z M369.1,276
	 M393.5,313.3h-9.6V285h-10.2v-9h30v9h-10.2L393.5,313.3z M393.5,313.3 M220.7,351.1v14.7h-9.5v-37.1h9.5v13.7H235v-13.7h9.4v37.1
	h-9.6v-14.7H220.7z M220.7,351.1 M287.5,347.3c0,17.3-21,26-33.2,13.8c-12.3-12.3-3.6-33.2,13.8-33.2
	C278.8,327.8,287.5,336.5,287.5,347.3L287.5,347.3z M277.2,347.3c-0.5-8.1-10.4-11.7-16-5.7c-5.5,5.9-1.3,15.6,6.8,15.6
	C273.3,356.9,277.4,352.5,277.2,347.3L277.2,347.3z M277.2,347.3 M304.5,336.8c-2.4,0-3.4,0.9-3.4,2.2c0,4.8,18.1,2.6,18.1,15.6
	c0,6.8-6.1,12.1-14.8,12.1c-8.7,0-12.7-3.4-15-6.8l6.8-6.4c1.9,2.8,5.1,4.4,8.4,4.3c2.9,0,4.4-0.9,4.4-2.7c0-5-18.1-2.6-18.1-15.7
	c0-6.6,6-11.5,14.2-11.5c5.6-0.2,10.9,2.3,14.2,6.8l-6.5,6.5C310.9,338.5,307.8,336.8,304.5,336.8L304.5,336.8z M304.5,336.8
	 M338,328.7c9.4,0,15.7,5.1,15.7,12.8c0,7.8-6.3,13-15.7,13h-3.9v11.2h-9.6v-37.1H338z M334.1,346.2h4.7c2.7,0.2,4.9-2,4.8-4.7
	c0-2.6-2.2-4.7-4.8-4.5h-4.7V346.2z M334.1,346.2 M358.3,365.8h9.6v-37.1h-9.6V365.8z M391.6,365.8h-9.6v-28.1h-10.2v-9h29.9v9
	h-10.2L391.6,365.8z M391.6,365.8 M410.9,358.8l-2.6,6.8h-10l14.5-37.1H424l14.5,37.1H428l-2.5-6.8H410.9z M414,350.3h8.4l-4.2-11.5
	L414,350.3z M414,350.3 M452.1,328.7v28.1h16.8v9h-26.5v-37.1H452.1z M452.1,328.7 M237.3,391.5c-2.5-2.2-5.8-3.4-9.1-3.4
	c-9.1,0.4-15.1,9.6-11.7,18c3.3,8.4,14,11,20.9,5.1l3.2,3.4c-3.3,3.1-7.7,4.7-12.3,4.4c-23.9,0-23.9-35.9,0-35.9
	c4.5-0.1,9,1.5,12.3,4.7L237.3,391.5z M237.3,391.5 M270.6,403.4h-19.4v15.1h-4.9V384h4.9v14.8h19.3V384h4.9v34.5h-4.9L270.6,403.4z
	 M270.6,403.4 M306.2,409.8h-16.5l-3.4,8.9h-5.2l14.1-34.6h5.7l14.3,34.5h-5.5L306.2,409.8z M298,389.3l-6.5,16.2h13L298,389.3z
	 M298,389.3 M320.2,384h12.1c7.6,0,12.6,4.1,12.6,10.4c0.1,4.8-3.3,8.9-8,9.9l8.6,14.2H340l-8.1-13.7h-6.8v13.7h-4.9L320.2,384z
	 M325.1,388.4v12.1h7.7c3.7,0.5,7-2.2,7.2-5.9c0-3.7-2.9-6.1-7.1-6.1L325.1,388.4z M325.1,388.4 M353.6,418.5h4.9V384h-4.9V418.5z
	 M380,388.6v29.9h-4.8v-29.9h-11V384h27v4.6H380z M380,388.6 M408.3,407l-12.8-23h5.5l9.9,17.8l10-17.8h5.2l-12.9,23v11.5h-4.9V407z
	 M408.3,407"/>
</svg>
